<?xml version="1.0" encoding="UTF-8"?>
<svg width="59px" height="59px" viewBox="0 0 59 59" version="1.1" xmlns="http://www.w3.org/2000/svg" xmlns:xlink="http://www.w3.org/1999/xlink">
    <!-- Generator: Sketch 52.6 (67491) - http://www.bohemiancoding.com/sketch -->
    <title>icon-phone</title>
    <desc>Created with Sketch.</desc>
    <g id="Page-1" stroke="none" stroke-width="1" fill="none" fill-rule="evenodd">
        <g id="Artboard" transform="translate(-1158.000000, -101.000000)" fill="#000000">
            <g id="icon-phone" transform="translate(1158.000000, 101.000000)">
                <path d="M12.0827795,20.6954827 C13.7660037,19.4670866 16.625734,17.3806803 19.1583354,15.5335038 C20.407295,14.6246347 20.7715376,12.921141 20.0034646,11.5809952 C18.3918664,8.76585963 15.7241877,4.11111262 14.2399049,1.52157805 C13.5929664,0.393193688 12.2974803,-0.195749166 11.0219069,0.058639203 L4.73202783,1.30405995 C3.55712709,1.53248329 2.57843098,2.34152622 2.13309071,3.45248137 C-2.93689773,16.2814013 1.1131904,33.1696189 13.4060578,45.498282 L13.5040044,45.5962343 C25.8285614,57.8852759 42.7215215,61.9393292 55.5467919,56.8646171 C56.6565103,56.419237 57.4647573,55.4416324 57.6935923,54.2679829 L58.9417243,47.9810799 C59.195399,46.7037585 58.6052871,45.4070783 57.4755283,44.7593393 L47.4257296,38.9968305 C46.0841767,38.226507 44.3777768,38.5901666 43.4668686,39.8405236 C41.620824,42.3752607 39.5360129,45.2340887 38.3077246,46.9175743 C37.6583126,47.8078587 36.4979787,48.1607047 35.4628754,47.7826645 C29.9177863,45.7211528 24.8894075,42.4743295 20.7287189,38.2688224 C16.5251713,34.1091217 13.2799886,29.0822386 11.2196422,23.538984 C10.8410443,22.5047259 11.1931434,21.3447782 12.0827795,20.6954827 Z" id="Path"></path>
            </g>
        </g>
    </g>
</svg>